# xmcd CD database file
#
# Track frame offsets:
#	150
#	14029
#	26980
#	42634
#	52899
#	67226
#	80857
#	94046
#	106826
#	118548
#
# Disc length: 1758 seconds
#
# Revision: 4
# Processed by: cddbd v1.5.2PL0 Copyright (c) Steve Scherf et al.
# Submitted via: CDex 1.70beta2
#
DISCID=8d06dc0a
DTITLE=Dick Jensen - Dick Jensen (2010 Japan Remastered)
DYEAR=1973
DGENRE=R&B
TTITLE0=A Penny For Your Thoughts (Gamble-Huff)
TTITLE1=I Don't Want To Cry (Dixon-Jackson)
TTITLE2=Three Cheers To Love (Gamble-Huff)
TTITLE3=Fat Mama (Gamble-Huff)
TTITLE4=New York City's A Lonely Town (Gamble-Huff)
TTITLE5=32nd Street (Bell-Creed)
TTITLE6=Going Up On The Mountain (Gamble-Huff)
TTITLE7=Peace Of Mind (Gamble-Huff)
TTITLE8=Shall We Gather By The Water (B.Sigler-Hurtt)
TTITLE9=Tamika (Come Back Later)
EXTD=YEAR: 1973
EXTT0=
EXTT1=
EXTT2=
EXTT3=
EXTT4=
EXTT5=
EXTT6=
EXTT7=
EXTT8=
EXTT9=
PLAYORDER=
